<?xml version="1.0" encoding="UTF-8" standalone="no"?>
<svg
   viewBox="0 0 512 512"
   width="512"
   height="512"
   version="1.1"
   id="svg8"
   sodipodi:docname="logo.svg"
   inkscape:version="1.4.4 (dcaf3e7, 2026-05-05)"
   inkscape:export-filename="logo.png"
   inkscape:export-xdpi="96"
   inkscape:export-ydpi="96"
   xmlns:inkscape="http://www.inkscape.org/namespaces/inkscape"
   xmlns:sodipodi="http://sodipodi.sourceforge.net/DTD/sodipodi-0.dtd"
   xmlns="http://www.w3.org/2000/svg"
   xmlns:svg="http://www.w3.org/2000/svg">
  <defs
     id="defs8" />
  <sodipodi:namedview
     id="namedview8"
     pagecolor="#ffffff"
     bordercolor="#000000"
     borderopacity="0.25"
     inkscape:showpageshadow="2"
     inkscape:pageopacity="0.0"
     inkscape:pagecheckerboard="true"
     inkscape:deskcolor="#d1d1d1"
     showgrid="false"
     inkscape:zoom="0.88424844"
     inkscape:cx="323.43851"
     inkscape:cy="269.15513"
     inkscape:window-width="1857"
     inkscape:window-height="1301"
     inkscape:window-x="1016"
     inkscape:window-y="201"
     inkscape:window-maximized="0"
     inkscape:current-layer="svg8" />
  <rect
     width="512"
     height="512"
     rx="109.18928"
     fill="#0e9398"
     id="rect1"
     x="0"
     y="0"
     style="stroke-width:4.97892" />
  <g
     fill="#ffffff"
     transform="matrix(4.5887914,0,0,4.5887914,-165.49662,-392.80475)"
     id="g8">
    <g
       transform="matrix(0.89614665,0,0,0.89614665,7.9483611,16.727779)"
       id="g7">
      <g
         transform="translate(6.7812161,4.498759)"
         id="g2">
        <path
           d="m 66.033179,116.69934 c -4.412016,4.89314 -12.358013,12.52542 -17.596859,23.54326 -1.987636,4.76634 -5.434859,14.13639 -5.857007,17.71365 l 8.582939,4.81728 c 6.977318,-7.0357 13.098603,-13.43877 17.445963,-25.25324 1.421897,-4.1573 3.06366,-10.49489 4.738729,-16.41967 z"
           id="path1" />
        <path
           d="m 85.934794,81.917297 c -4.696459,0.08969 -6.548377,5.246501 -4.58162,8.852873 -4.714452,10.23004 -10.939485,20.2839 -13.105143,23.40736 l 5.988781,3.50934 c 1.634814,-3.92835 6.500703,-14.4903 11.935189,-24.419178 3.93831,-0.64312 5.787539,-3.93172 5.368148,-6.871415 -0.303232,-3.07033 -3.343756,-4.571558 -5.605355,-4.47898 z"
           id="path2" />
      </g>
      <g
         transform="rotate(120.03777,89.949357,146.22697)"
         id="g4">
        <path
           d="m 66.033179,116.69934 c -4.412016,4.89314 -12.358013,12.52542 -17.596859,23.54326 -1.987636,4.76634 -5.434859,14.13639 -5.857007,17.71365 l 8.582939,4.81728 c 6.977318,-7.0357 13.098603,-13.43877 17.445963,-25.25324 1.421897,-4.1573 3.06366,-10.49489 4.738729,-16.41967 z"
           id="path3" />
        <path
           d="m 85.934794,81.917297 c -4.696459,0.08969 -6.548377,5.246501 -4.58162,8.852873 -4.714452,10.23004 -10.939485,20.2839 -13.105143,23.40736 l 5.988781,3.50934 c 1.634814,-3.92835 6.500703,-14.4903 11.935189,-24.419178 3.93831,-0.64312 5.787539,-3.93172 5.368148,-6.871415 -0.303232,-3.07033 -3.343756,-4.571558 -5.605355,-4.47898 z"
           id="path4" />
      </g>
      <g
         transform="rotate(-118.17294,93.364836,142.07611)"
         id="g6">
        <path
           d="m 66.033179,116.69934 c -4.412016,4.89314 -12.358013,12.52542 -17.596859,23.54326 -1.987636,4.76634 -5.434859,14.13639 -5.857007,17.71365 l 8.582939,4.81728 c 6.977318,-7.0357 13.098603,-13.43877 17.445963,-25.25324 1.421897,-4.1573 3.06366,-10.49489 4.738729,-16.41967 z"
           id="path5" />
        <path
           d="m 85.934794,81.917297 c -4.696459,0.08969 -6.548377,5.246501 -4.58162,8.852873 -4.714452,10.23004 -10.939485,20.2839 -13.105143,23.40736 l 5.988781,3.50934 c 1.634814,-3.92835 6.500703,-14.4903 11.935189,-24.419178 3.93831,-0.64312 5.787539,-3.93172 5.368148,-6.871415 -0.303232,-3.07033 -3.343756,-4.571558 -5.605355,-4.47898 z"
           id="path6" />
      </g>
    </g>
  </g>
</svg>
